<svg xmlns="http://www.w3.org/2000/svg" version="1.1" xmlns:xlink="http://www.w3.org/1999/xlink" width="1500" height="1500" viewBox="0 0 1500 1500"><rect width="1500" height="1500" x="0" y="0" id="background" stroke="transparent" fill="#ffffff"></rect><svg xml:space="preserve" width="1000" height="1000" data-version="2" data-id="lg_VQPAP1f3YaFdzvSiSy" viewBox="0 0 691 259" x="250" y="250"><rect width="100%" height="100%" fill="transparent"></rect><path fill="#ff851b" d="M120.446 157.31q8.99.93 13.41.93t13.41-1.24q2.79.93 3.25 2.33.47 1.39.31 2.86-.15 1.48.16 2.87.31 1.4 2.94 2.33 1.4.46.85 2.71-.54 2.25-2.55 4.88-5.12 6.67-12.09 9.3-11.16 2.79-17.52 3.26-10.54.77-22.94-.78-13.64-2.48-13.17-11.31 0-32.55 14.26-65.41 4.65-10.7 10.54-22.48 1.24-2.48 1.47-5.58.23-3.1.39-6.04.15-2.95.93-5.27.77-2.33 3.25-3.26 32.24-12.86 51-9.92 6.51.16 8.6 4.42t.46 9.53q-1.62 5.27-6.35 9.92-4.73 4.65-11.86 5.74-9.14 2.63-11.16 3.56-3.87 1.86-5.58 4.96-2.17 3.41-4.03 6.51-1.86 3.1-2.63 6.67l-.62 3.41q2.94 1.39 7.2.85 4.27-.54 7.91-1.09 3.64-.54 5.89-.07 2.25.46.93 4.57-1.32 4.11-4.81 9.22-3.48 5.12-9.84 7.44-4.03.78-5.5 1.16-1.47.39-2.25.55-1.08.15-6.2.46-7.28 12.4-8.83 19.22-.62 2.79.77 2.79"></path><rect width="92.21" height="132.15" x="-46.1" y="-66.08" fill="none" rx="0" ry="0" transform="translate(132.97 122.47)"></rect><path fill="#ff851b" d="m237.626 110.35.62.15q.31 0 .31.16 4.03-1.55 6.67 2.32 1.7 2.64 2.63 8.06.31 7.44-1.55 20.62-3.56 26.66-3.87 31.77.31 5.43-6.67 7.44-6.04 1.86-12.09-.15-6.35-2.17-5.27-6.67-1.24 2.33-2.48 3.33-1.24 1.01-4.88 2.79-3.64 1.79-10.31 2.95-6.66 1.16-13.33.62-6.66-.54-12.17-3.26-5.5-2.71-7.36-8.44-3.56-11.16.93-28.37 3.1-11.31 11.16-19.99 9.3-9.92 21.08-16.43 8.84-4.81 17.05-5.74 2.79-.31 4.88.16 2.1.46 4.5.93 2.4.46 4.57 1.39 5.58 2.33 5.58 6.36m-28.67 41.07q1.08-2.17 1.78-5.42.7-3.26 1.94-7.13-12.56 5.11-19.22 12.55-7.29 8.22.93 11.32 7.13 1.86 10.38-2.33 1.4-1.86 2.48-4.65 1.09-2.79 2.64-5.73-.47.77-.93 1.39"></path><rect width="82.7" height="82.8" x="-41.35" y="-41.4" fill="none" rx="0" ry="0" transform="translate(207.16 143.2)"></rect><path fill="#ff851b" d="m291.726 60.9.15-.62 1.4-1.39q1.7-4.03 3.72-4.81 1.08-.31 2.79-.77 1.7-.47 4.49-2.33 1.09-2.17 4.5-1.94 3.41.24 6.74 2.17 3.33 1.94 5.42 5.35 2.1 3.41 1.01 7.05-1.08 3.65-1.78 5.43-.7 1.78-1.4 3.33-.69 1.55-1.7 3.49-1.01 1.94-2.56 5.19l-5.11 10.7q-.78 2.01-1.32 2.32-.54.31-1.01 1.09 1.4-.31 2.33-.47.93-.15 1.86-.31 2.17-.31 4.96-.62 1.7.31 2.94.31h2.17q1.86 0 4.5 1.01 2.63 1.01 3.41 3.49.77 2.48.15 5.03-.62 2.56-2.48 4.73-1.86 2.17-4.8 2.33-13.49 3.72-19.22 4.03l-.93 1.08v.16q-1.55 3.72-3.34 9.37-1.78 5.66-3.87 12.25t-4.26 13.64q-2.17 7.05-4.5 13.56-7.44 21.86-10.85 23.72-1.24.62-2.56.85-1.31.23-1.47.39-5.42-.31-8.99-2.17-3.56-1.86-4.8-3.57-1.24-1.7-.62-3.87 2.94-26.97 11.78-59.06-3.1 0-4.34.62-2.33 1.24-5.58 1.4h-.16q-2.48-.16-4.49-2.33-2.02-2.17-2.48-4.96-.47-2.79.93-5.73 1.39-2.95 5.58-4.65 4.96-1.4 7.28-2.33 4.5-1.86 7.52-2.63 3.02-.78 3.41-1.01.39-.23.54-.39.47-.31 2.33-.31.93-4.49 1.86-9.14t2.32-9.46q3.1-11.16 8.53-19.22"></path><rect width="78.69" height="140.77" x="-39.34" y="-70.39" fill="none" rx="0" ry="0" transform="translate(290.99 119.83)"></rect><path fill="#ff851b" d="M371.396 153.9q-2.95 1.4-5.74 2.17-2.79.78-6.51 1.55-9.76 2.02-14.1 2.33.46 1.55 4.65 3.72 2.79.46 6.12-.86 3.33-1.31 6.97-2.48 3.65-1.16 7.13-1.31 3.49-.16 6.59 2.63 1.24 2.79 2.02 3.26.77.46 1.39.46.62 0 1.4.47.77.46 2.24 3.56 1.48 3.1-.77 5.89-2.25 2.79-6.9 4.81-4.65 2.01-10.85 3.25-6.2 1.24-12.4 1.71-13.95 1.08-21.23-2.17-10.54-3.57-13.64-14.11-4.03-13.95 4.49-32.55 3.88-8.68 12.25-18.6 7.28-8.68 16.27-12.55 10.39-4.5 21.7-4.19 12.09.31 16.74 10.54 2.33 5.43.93 15.19-2.48 12.71-6.51 17.98-4.03 5.12-12.24 9.3m-8.99-24.49q-8.22-1.7-12.87 9.3-1.39 2.95-2.17 6.2 5.27.62 11.16-5.89 2.17-2.63 3.26-5.35 1.08-2.71.62-4.26"></path><rect width="75.95" height="84.93" x="-37.98" y="-42.47" fill="none" rx="0" ry="0" transform="translate(353.63 143.74)"></rect><path fill="#ff851b" d="m462.996 110.35.62.15q.31 0 .31.16 4.03-1.55 6.67 2.32 1.7 2.64 2.63 8.06.31 7.44-1.55 20.62-3.56 26.66-3.87 31.77.31 5.43-6.67 7.44-6.04 1.86-12.09-.15-6.35-2.17-5.27-6.67-1.24 2.33-2.48 3.33-1.24 1.01-4.88 2.79-3.64 1.79-10.31 2.95-6.66 1.16-13.33.62-6.66-.54-12.17-3.26-5.5-2.71-7.36-8.44-3.56-11.16.93-28.37 3.1-11.31 11.16-19.99 9.3-9.92 21.08-16.43 8.84-4.81 17.05-5.74 2.79-.31 4.88.16 2.1.46 4.5.93 2.4.46 4.57 1.39 5.58 2.33 5.58 6.36m-28.67 41.07q1.08-2.17 1.78-5.42.7-3.26 1.94-7.13-12.56 5.11-19.22 12.55-7.29 8.22.93 11.32 7.13 1.86 10.38-2.33 1.4-1.86 2.48-4.65 1.09-2.79 2.64-5.73-.47.77-.93 1.39"></path><rect width="82.7" height="82.8" x="-41.35" y="-41.4" fill="none" rx="0" ry="0" transform="translate(432.53 143.2)"></rect><path fill="#ff851b" d="M517.246 161.81q4.65-1.24 10.08-.62 5.42.62 9.45 3.1 4.03 2.48 5.5 6.82 1.48 4.34-1.93 10.38-1.71.16-6.9 1.09t-12.09 2.01q-6.9 1.09-14.57 2.02-7.67.93-14.34 1.08-15.34.62-17.05-3.56-6.04-13.49 13.33-33.02 5.12-4.96 9.46-9.07 4.34-4.1 7.05-7.05 2.71-2.94 1.94-4.34-2.95-.62-3.57-.93-1.08-.77-5.35-1.32-4.26-.54-6.51-2.94-2.24-2.4-1.86-5.58.39-3.18 3.1-6.51 2.72-3.33 7.37-5.81 4.65-2.48 9.99-4.19 5.35-1.7 10.93-2.79 9.3-2.01 22.01-2.79 1.71 0 2.4 1.16.7 1.17 1.32 2.48.62 1.32 1.63 2.33 1.01 1.01 4.11.62 3.1-.39 4.41 2.63 1.32 3.03.7 7.52-.62 4.5-2.94 9.22-2.33 4.73-6.05 7.52-18.6 18.6-23.25 22.79Zm-34.72 2.94q.16-.15 0 0-.15.16-.46.31.15 0 .46-.31"></path><rect width="86.42" height="90.2" x="-43.21" y="-45.1" fill="none" rx="0" ry="0" transform="translate(515.55 143.39)"></rect><path fill="#ff851b" d="m561.036 129.41.04-3.18q.04-3.17-1.05-7.2-1.08-4.03.08-6.75 1.16-2.71 3.72-3.79 2.56-1.09 6.04-.7 3.49.39 6.9 2.09 8.22 3.72 11.47 10.54.78 3.41-.54 8.45-1.32 5.04-3.02 10.38-1.71 5.35-3.26 10.39-1.55 5.04-1.24 8.45 4.03-2.48 7.05-7.44 3.03-4.96 5.58-10.62 2.56-5.66 4.81-11.24 2.25-5.58 4.34-8.83 2.09-3.26 3.33-5.2 1.24-1.93 2.48-3.48 2.02-2.64 5.27-5.12.93-.77 5.66.23 4.73 1.01 6.97 1.4 2.25.39 3.03-.23l2.17-1.55q4.34-2.17 10.23.15 5.73 2.48 6.04 7.6-.15.15-.15.62l.46.15-1.08.93q-1.09 2.02-1.63 2.71-.54.7-2.25 2.1-10.54 11.31-24.18 42-3.41 7.6-6.2 13.64 4.19 2.64 6.36 6.82 2.17 4.19 0 9.15-12.87 10.23-14.42 19.22-.77 5.58-1.94 7.9-1.16 2.33-3.64 4.5-8.37 6.2-19.68-3.1-8.06-8.06-.78-20.15 1.86-3.26 3.57-6.82 2.48-5.27 7.9-15.66-13.33 7.75-24.49-.31-7.9-6.04-5.58-27.43 1.55-14.26 1.63-20.62"></path><rect width="89.38" height="123.42" x="-44.69" y="-61.71" fill="none" rx="0" ry="0" transform="translate(603.25 166.61)"></rect><path d="M670.29 216.305h-11.537v-6.593h-19.998c-2.857-6.263-9.23-10.658-16.592-10.658-10.109 0-18.35 8.24-18.35 18.35 0 6.153 3.077 11.537 7.692 14.834v17.031h5.274c.55 3.516 3.626 6.263 7.362 6.263s6.813-2.747 7.362-6.263h29.228c.55 3.516 3.626 6.263 7.362 6.263s6.813-2.747 7.362-6.263h7.472v-16.372zm6.374 12.087h-11.318v-5.494h7.142zm-70.653-10.988c0-8.9 7.252-16.153 16.152-16.153s16.153 7.253 16.153 16.153-7.253 16.152-16.153 16.152c-8.9-.11-16.152-7.362-16.152-16.152m18.13 35.93c-2.857 0-5.274-2.307-5.274-5.274 0-2.966 2.307-5.274 5.274-5.274s5.274 2.308 5.274 5.274c0 2.967-2.417 5.275-5.274 5.275m32.415-6.263h-25.163c-.55-3.626-3.626-6.373-7.362-6.373s-6.812 2.747-7.362 6.373h-2.967v-13.515a18.19 18.19 0 0 0 8.461 2.088c3.736 0 7.252-1.099 10.219-3.077v.22h19.778v-2.198H634.8c1.648-1.538 2.966-3.406 3.955-5.494h13.405v-2.197h-12.526c.55-1.758.88-3.626.88-5.494h11.646v-2.198h-11.867a17.52 17.52 0 0 0-.659-3.296h16.922v4.395zm11.537 6.264c-2.857 0-5.274-2.308-5.274-5.275 0-2.966 2.307-5.274 5.274-5.274s5.274 2.308 5.274 5.274c0 2.967-2.417 5.275-5.274 5.275m7.252-6.264c-.55-3.626-3.626-6.373-7.362-6.373s-6.812 2.747-7.362 6.373h-1.868v-28.568h10.439l1.648 2.197h-7.692v9.89h15.274l2.307 3.076v2.527c-1.758.55-3.296 2.198-3.296 4.176 0 1.978 1.538 3.736 3.296 4.175v2.527zm5.384-8.46v3.736c-.66-.44-1.099-1.1-1.099-1.868s.44-1.539 1.1-1.868"></path><path d="M622.163 219.821a2.204 2.204 0 0 0 2.198-2.197c0-.66-.33-1.21-.77-1.649v-10.658h-2.197v10.219c-.879.33-1.428 1.099-1.428 2.088 0 .22 0 .33.11.549l-4.945 4.945 1.538 1.538 4.945-4.945c.22.11.33.11.55.11m-4.065 18.46h34.062v2.198h-34.062z"></path><path fill="#001f3f" d="M602.398 235.483h-11.193c-.43 0-.43.666 0 .666h11.193c.43 0 .43-.666 0-.666m.845-1.897h-10.35c-.413 0-.413.64 0 .64h10.35c.412 0 .412-.64 0-.64m-2.044-1.879h-11.193c-.43 0-.43.667 0 .667h11.193c.43 0 .43-.667 0-.667"></path><path fill="#001f3f" d="M590.805 239.148a2.935 2.935 0 0 1-2.932-2.932c0-.092.01-.174.021-.248a2.939 2.939 0 0 1-1.975-2.773 2.935 2.935 0 0 1 3.21-2.918c.216-1.397 1.401-2.434 2.875-2.434a2.94 2.94 0 0 1 2.872 2.341.378.378 0 0 1-.74.151 2.182 2.182 0 0 0-2.132-1.737c-1.208 0-2.154.94-2.154 2.138a.378.378 0 0 1-.518.35l-.075-.029a2.192 2.192 0 0 0-.407-.038c-1.2 0-2.176.976-2.176 2.176a2.18 2.18 0 0 0 1.754 2.136.379.379 0 0 1 .274.519l-.032.075-.013.067c-.016.085-.03.152-.03.224 0 1.2.977 2.176 2.177 2.176a2.17 2.17 0 0 0 2.014-1.349.378.378 0 0 1 .699.287 2.922 2.922 0 0 1-2.712 1.818m11.501 8.454h-18.9c-.432 0-.432.668 0 .668h18.9c.432 0 .432-.668 0-.668m.848-1.904h-18.055c-.414 0-.414.643 0 .643h18.055c.414 0 .414-.643 0-.643m-2.051-1.885h-18.9c-.432 0-.432.669 0 .669h18.9c.432 0 .432-.669 0-.669"></path><path fill="#001f3f" d="M583.004 251.279a2.945 2.945 0 0 1-2.942-2.942c0-.092.01-.174.022-.249a2.949 2.949 0 0 1-1.983-2.782 2.945 2.945 0 0 1 3.222-2.928c.216-1.402 1.406-2.442 2.884-2.442a2.95 2.95 0 0 1 2.883 2.349.38.38 0 0 1-.296.447.38.38 0 0 1-.447-.295 2.19 2.19 0 0 0-2.14-1.744c-1.211 0-2.16.943-2.16 2.145a.379.379 0 0 1-.52.352l-.075-.03a2.184 2.184 0 0 0-.409-.037c-1.204 0-2.183.98-2.183 2.184 0 1.04.74 1.942 1.76 2.142a.378.378 0 0 1 .275.521l-.032.076-.013.066c-.016.085-.03.153-.03.225 0 1.205.98 2.184 2.184 2.184a2.178 2.178 0 0 0 2.021-1.353.378.378 0 0 1 .495-.207.378.378 0 0 1 .206.494 2.933 2.933 0 0 1-2.722 1.824"></path><path d="M106.66 69.6c-.61-.366-1.342-.243-1.708.367l-2.565 4.03H11.301l-2.076-4.152c-.244-.61-.977-.855-1.587-.488-.61.244-.855.976-.489 1.587l2.442 4.884c.245.366.61.732 1.1.732h92.429c.366 0 .855-.244.977-.61l2.93-4.518c.367-.732.244-1.465-.366-1.831M74.428 4.645s.244.122.61.244c1.099.488 3.175 1.831 2.686 5.006-.244 1.22-.854 2.198-1.465 3.175-.122.244-.244.366-.488.61-1.71 2.32-3.785 5.006.976 9.89.245.244.61.366.855.366.366 0 .61-.122.855-.366a1.18 1.18 0 0 0 0-1.71c-.489-.488-.855-.976-1.221-1.342-1.221-1.71-1.221-2.687-.61-3.908.243-.488.61-.976.976-1.465.977-1.22 2.076-2.686 2.442-4.762.855-4.884-2.93-7.326-5.006-7.936a1.084 1.084 0 0 0-1.465.855c-.122.488.244 1.22.854 1.343"></path><path d="M78.822 16.243c-.366.61-.122 1.343.366 1.71.122 0 .245.122.489.366.854.732 2.564 2.686 1.343 5.494-.489 1.1-1.343 1.954-2.198 2.686-.244.123-.366.367-.61.489-2.32 1.831-4.884 3.907-1.588 9.768.244.366.61.61 1.1.61.243 0 .365 0 .61-.122.61-.366.854-1.099.488-1.71-.366-.61-.61-1.098-.855-1.586-.854-1.954-.488-2.93.489-3.908.366-.366.854-.732 1.343-1.099 1.22-.976 2.686-2.075 3.54-4.029 2.076-4.518-.854-7.814-2.685-9.035-.733-.489-1.466-.244-1.832.366m-67.4 46.52c-.121.733-.121 1.465.245 2.32-.122.122-.244.366-.366.61-.244.489-1.1 1.588-.367 2.931.977 1.832 4.762 4.03 25.764 4.03 20.879 0 24.664-2.076 25.64-4.03.733-1.343-.122-2.442-.488-2.93-.366-.733-.855-1.221-1.22-1.588.121-.366.243-.61.243-.976a14.212 14.212 0 0 0 1.832-.733c.855.488 1.831.855 2.808 1.22l-1.099 5.618a.95.95 0 0 0 .244.976c.245.245.611.489.977.489h24.542c.367 0 .733-.122.977-.489a.947.947 0 0 0 .244-.976L90.3 63.74c7.448-2.808 14.53-8.913 15.018-21.978 0-.366-.122-.61-.366-.855-.245-.244-.489-.366-.855-.366H51.838c-.366 0-.61.122-.855.366a1.32 1.32 0 0 0-.366.855c0 1.343.244 2.686.366 3.907-4.151-1.465-9.035-2.32-14.407-2.32-15.873-.122-27.473 6.96-27.473 16.728 0 .855.366 2.076 2.32 2.686M22.9 47.867l2.93 5.128c.245.367.611.61 1.1.61.244 0 .366 0 .61-.121.61-.367.733-1.1.489-1.71l-2.687-4.762a35.776 35.776 0 0 1 8.425-1.343l3.175 5.495c.244.366.61.61 1.099.61.244 0 .366 0 .61-.122.61-.366.733-1.099.489-1.71l-2.442-4.395c3.296 0 6.349.366 9.157.977l3.297 5.86c.244.367.61.611 1.099.611.244 0 .366 0 .61-.122.61-.366.733-1.099.489-1.71l-2.198-3.784c.855.244 1.71.61 2.564.976.488.245.977.367 1.465.61.61.245 1.099.611 1.587.856 3.908 2.32 6.35 5.25 6.838 8.79 0 .367.122.855.122 1.222 0 .122 0 .122-.122.244-.122.244-.61.366-1.343.61h-.122c-.244 0-.489.123-.855.123-.977.122-2.32.244-4.151.244-1.954 0-4.152-.122-6.838-.122-3.419-.122-7.204-.245-11.6-.245-4.029 0-7.814.123-11.11.245-1.954 0-3.663.122-5.129.122h-1.71c-2.197 0-3.906-.122-5.005-.244-.366 0-.61-.123-.855-.123-.732-.122-1.22-.488-1.22-.61-.123-5.372 4.273-9.768 11.232-12.21m56.777 15.385H76.38c-4.884-.367-8.913-1.466-12.332-3.175v-.122c0-4.518-2.564-8.547-6.96-11.477h44.567c-3.297 11.11-13.431 14.285-21.978 14.774M53.18 42.739h49.573c-.122 1.22-.244 2.32-.489 3.297H53.67c-.245-.977-.367-2.076-.489-3.297m-27.106 23.32-4.151-2.563c1.22 0 2.442 0 3.785-.122 1.343 0 2.808-.122 4.273-.122zM13.987 64.35c-.244-.244-.244-.732-.244-1.098.732.122 1.71.122 2.808.244h.61l1.1.61 1.587.977h-3.541c-1.221 0-1.954-.244-2.32-.733m20.39-1.098h4.763l.244.244 2.686 1.953-10.745-.122zm9.036 0c1.71 0 3.297.122 4.762.122 1.343 0 2.686.122 3.907.122l-4.517 2.686zM57.7 64.35c-.733.733-1.954 1.222-3.541 1.222h-.733l3.053-1.832c.122 0 .122-.122.122-.122.61 0 1.099 0 1.587-.122 0 .244-.244.61-.488.854m-21.123 5.861c-4.64 0-8.425-.122-11.478-.244-10.989-.61-11.966-2.198-12.088-2.32 0-.122.122-.366.244-.366l.123-.122c.732.366 1.709.61 2.93.61s4.396 0 7.57.122l1.587.977c.245-.244.489-.244.733-.244s.488-.122.733-.244l1.099-.855 17.704.366 1.221.855c.244.122.488.244.733.244.244 0 .488 0 .61-.122l1.343-.732h4.762c2.198 0 3.907-.61 5.128-1.832.122.122.245.366.367.61 0 .123.122.245.244.367s.244.366.244.366c-.366.122-1.954 2.564-23.81 2.564m52.136-2.075h-21.49l.733-3.785c2.442.732 5.25 1.22 8.18 1.465h3.542c2.442-.122 5.25-.489 8.18-1.343z"></path></svg></svg>