<svg xmlns="http://www.w3.org/2000/svg" xml:space="preserve" width="192" height="192" data-version="2">
    <path fill="#ff851b" d="M90.38 131.65q8.93.93 13.32.93 4.39 0 13.32-1.23 2.77.92 3.23 2.31.46 1.38.31 2.84-.15 1.47.15 2.85.31 1.39 2.93 2.31 1.39.47.85 2.7-.54 2.23-2.54 4.85-5.09 6.62-12.02 9.24-11.08 2.77-17.4 3.23-10.47.77-22.79-.77-13.55-2.46-13.09-11.24 0-32.34 14.17-64.99 4.62-10.62 10.47-22.33 1.23-2.46 1.46-5.54.23-3.08.39-6.01.15-2.92.92-5.23.77-2.31 3.24-3.24 32.03-12.78 50.66-9.85 6.47.15 8.55 4.39 2.08 4.23.46 9.47-1.62 5.23-6.31 9.85-4.7 4.62-11.78 5.7-9.09 2.62-11.09 3.54-3.85 1.85-5.55 4.93-2.15 3.39-4 6.47-1.85 3.08-2.62 6.62l-.61 3.39q2.92 1.39 7.16.85 4.23-.54 7.85-1.08 3.62-.54 5.85-.08 2.24.46.93 4.54-1.31 4.09-4.78 9.17-3.46 5.08-9.78 7.39-4 .77-5.46 1.15-1.47.39-2.24.54-1.07.16-6.16.47-7.23 12.32-8.77 19.09-.62 2.77.77 2.77" paint-order="stroke"/>
    <rect width="91.615" height="131.296" x="-45.807" y="-65.648" fill="none" rx="0" ry="0" transform="translate(102.825 97.038)"/>
</svg>
